<svg width="92" height="92" viewBox="0 0 92 92" fill="none" xmlns="http://www.w3.org/2000/svg">
<path d="M91.9599 65.7322L85.2637 36.4433C85.2497 36.3828 85.2319 36.3241 85.2118 36.2669C84.702 34.4143 82.2471 33.0145 77.4629 31.8366C76.5529 27.0558 72.3442 23.4292 67.3022 23.4292C66.9806 23.4292 66.6582 23.4447 66.3362 23.475C64.5782 20.0815 61.0344 17.8804 57.145 17.8804C55.9579 17.8804 54.7787 18.086 53.6674 18.4817C52.0082 15.9031 49.1461 14.3065 46.0002 14.3065C42.8543 14.3065 39.9924 15.9029 38.333 18.4817C37.2217 18.086 36.0425 17.8804 34.8554 17.8804C30.9659 17.8804 27.4222 20.0817 25.6642 23.475C25.3422 23.4445 25.0198 23.4292 24.6981 23.4292C19.6562 23.4292 15.4475 27.0558 14.5375 31.8366C9.6415 33.0422 7.18363 34.4794 6.75477 36.3971C6.74837 36.4204 6.74047 36.443 6.73521 36.4669L0.0402529 65.732C0.013543 65.8488 0 65.9684 0 66.0884C0 69.1527 4.78483 71.8852 14.2211 74.2101C23.3393 76.4566 34.6254 77.6937 46 77.6937C57.3748 77.6937 68.6607 76.4566 77.7789 74.2101C87.2154 71.8852 92 69.1527 92 66.0886C92 65.9686 91.9866 65.8492 91.9599 65.7322ZM77.5515 35.1628C80.5947 35.9887 81.658 36.7148 82.0004 37.0281C81.6069 37.3893 80.2586 38.2976 76.0663 39.2682C76.8425 38.0301 77.3529 36.6329 77.5515 35.1628ZM24.698 26.6267C25.2244 26.6267 25.7562 26.6865 26.2785 26.8043C27.0644 26.9818 27.8591 26.5468 28.1336 25.7895C29.1553 22.9712 31.8564 21.0777 34.8552 21.0777C36.0527 21.0777 37.2373 21.3795 38.2807 21.9508C38.6789 22.1686 39.1508 22.2072 39.5791 22.0565C40.0072 21.9058 40.3512 21.5803 40.5252 21.161C41.4469 18.9392 43.5959 17.5038 46.0002 17.5038C48.4044 17.5038 50.5533 18.9394 51.475 21.161C51.6489 21.5803 51.993 21.9058 52.4211 22.0565C52.8494 22.2072 53.3215 22.1686 53.7195 21.9508C54.7629 21.3795 55.9475 21.0777 57.145 21.0777C60.1438 21.0777 62.8449 22.9712 63.8666 25.7895C64.1411 26.5466 64.936 26.9822 65.7216 26.8043C66.244 26.6865 66.7757 26.6267 67.3022 26.6267C71.2434 26.6267 74.3429 29.8347 74.4499 33.7744C74.524 36.5013 72.5788 38.8969 70.6829 40.2677C63.8691 41.2902 55.1342 41.8519 46.0002 41.8519C37.0928 41.8519 28.5658 41.3175 21.8291 40.3428C19.3123 39.1691 17.5504 36.5522 17.5504 33.7744C17.5503 29.8332 20.7568 26.6267 24.698 26.6267ZM14.448 35.163C14.6481 36.6376 15.1631 38.0348 15.9369 39.2689C11.7424 38.2982 10.3933 37.3895 9.99983 37.0281C10.342 36.7148 11.4051 35.9889 14.448 35.163ZM76.3044 71.2769C67.5486 73.353 56.7863 74.4962 46.0002 74.4962C35.2141 74.4962 24.4517 73.353 15.6958 71.2769C7.07077 69.2319 3.65624 67.0009 3.22869 66.134L9.13721 40.3055C9.74326 40.6456 10.3149 40.8759 10.651 41.0111C12.6563 41.8184 15.4864 42.5366 19.0626 43.1456C26.2721 44.3733 35.8386 45.0496 46.0002 45.0496C56.1618 45.0496 65.7282 44.3733 72.9376 43.1456C76.5137 42.5366 79.3439 41.8184 81.3492 41.0111C81.6859 40.8755 82.2588 40.6449 82.8662 40.3039L88.7717 66.1338C88.3443 67.0005 84.9298 69.2318 76.3044 71.2769Z" fill="#6FB6F8"/>
<path d="M65.4497 46.3246C61.7346 46.3246 58.6422 49.0428 58.0567 52.5945H33.9433C33.358 49.0427 30.2655 46.3246 26.5503 46.3246C22.419 46.3246 19.0579 49.6858 19.0579 53.8171C19.0579 55.4651 19.5964 57.0432 20.5705 58.3315C19.5964 59.6198 19.0579 61.1979 19.0579 62.8458C19.0579 66.9772 22.419 70.3383 26.5503 70.3383C30.2655 70.3383 33.3578 67.6201 33.9433 64.0685H58.0567C58.642 67.6203 61.7346 70.3383 65.4497 70.3383C69.581 70.3383 72.9422 66.9772 72.9422 62.8458C72.9422 61.1979 72.4036 59.6198 71.4295 58.3315C72.4036 57.0432 72.9422 55.4651 72.9422 53.8171C72.9422 49.6858 69.581 46.3246 65.4497 46.3246ZM68.2091 59.556C69.1849 60.3753 69.7445 61.5745 69.7445 62.846C69.7445 65.2142 67.8178 67.1408 65.4497 67.1408C63.0813 67.1408 61.1546 65.2142 61.1546 62.846C61.1546 62.7537 61.1584 62.6621 61.1642 62.5712C61.1923 62.1305 61.0367 61.6977 60.7344 61.3758C60.4322 61.0538 60.0103 60.8712 59.5686 60.8712H32.4314C31.9898 60.8712 31.5679 61.0538 31.2656 61.3758C30.9633 61.6979 30.8077 62.1305 30.8358 62.5712C30.8416 62.6621 30.8454 62.7537 30.8454 62.846C30.8454 65.2142 28.9187 67.1408 26.5503 67.1408C24.1822 67.1408 22.2555 65.2142 22.2555 62.846C22.2555 61.5747 22.8151 60.3755 23.791 59.556C24.1527 59.2522 24.3616 58.804 24.3616 58.3317C24.3616 57.8594 24.1529 57.4111 23.791 57.1073C22.8151 56.288 22.2555 55.0889 22.2555 53.8173C22.2555 51.4492 24.1822 49.5225 26.5503 49.5225C28.9187 49.5225 30.8454 51.4492 30.8454 53.8173C30.8454 53.9097 30.8416 54.0013 30.8358 54.0921C30.8077 54.5329 30.9633 54.9657 31.2656 55.2875C31.5677 55.6095 31.9898 55.7922 32.4314 55.7922H59.5686C60.0103 55.7922 60.4322 55.6095 60.7344 55.2875C61.0367 54.9655 61.1923 54.5329 61.1642 54.0921C61.1584 54.0013 61.1546 53.9097 61.1546 53.8173C61.1546 51.4492 63.0813 49.5225 65.4497 49.5225C67.8178 49.5225 69.7445 51.4492 69.7445 53.8173C69.7445 55.0887 69.1849 56.2878 68.2091 57.1073C67.8473 57.4111 67.6384 57.8594 67.6384 58.3317C67.6386 58.804 67.8473 59.2522 68.2091 59.556Z" fill="#6FB6F8"/>
</svg>
